<svg width="37" height="37" viewBox="0 0 37 37" fill="none" xmlns="http://www.w3.org/2000/svg">
<path d="M15.4168 21.5833H21.5835C21.9924 21.5833 22.3845 21.4209 22.6736 21.1318C22.9627 20.8427 23.1252 20.4505 23.1252 20.0417C23.1252 19.6328 22.9627 19.2407 22.6736 18.9515C22.3845 18.6624 21.9924 18.5 21.5835 18.5H15.4168C15.008 18.5 14.6158 18.6624 14.3267 18.9515C14.0376 19.2407 13.8752 19.6328 13.8752 20.0417C13.8752 20.4505 14.0376 20.8427 14.3267 21.1318C14.6158 21.4209 15.008 21.5833 15.4168 21.5833V21.5833ZM29.2918 4.625H7.7085C6.48187 4.625 5.30548 5.11228 4.43813 5.97963C3.57077 6.84699 3.0835 8.02337 3.0835 9.25V13.875C3.0835 14.2839 3.24592 14.676 3.53504 14.9651C3.82416 15.2542 4.21629 15.4167 4.62516 15.4167H6.16683V27.75C6.16683 28.9766 6.65411 30.153 7.52146 31.0204C8.38882 31.8877 9.5652 32.375 10.7918 32.375H26.2085C27.4351 32.375 28.6115 31.8877 29.4789 31.0204C30.3462 30.153 30.8335 28.9766 30.8335 27.75V15.4167H32.3752C32.784 15.4167 33.1762 15.2542 33.4653 14.9651C33.7544 14.676 33.9168 14.2839 33.9168 13.875V9.25C33.9168 8.02337 33.4296 6.84699 32.5622 5.97963C31.6948 5.11228 30.5185 4.625 29.2918 4.625ZM27.7502 27.75C27.7502 28.1589 27.5877 28.551 27.2986 28.8401C27.0095 29.1292 26.6174 29.2917 26.2085 29.2917H10.7918C10.383 29.2917 9.99083 29.1292 9.70171 28.8401C9.41259 28.551 9.25016 28.1589 9.25016 27.75V15.4167H27.7502V27.75ZM30.8335 12.3333H6.16683V9.25C6.16683 8.84112 6.32926 8.449 6.61837 8.15988C6.90749 7.87076 7.29962 7.70833 7.7085 7.70833H29.2918C29.7007 7.70833 30.0928 7.87076 30.382 8.15988C30.6711 8.449 30.8335 8.84112 30.8335 9.25V12.3333Z" fill="#EFEFEF"/>
</svg>
