<svg width="40" height="40" viewBox="0 0 40 40" fill="none" xmlns="http://www.w3.org/2000/svg">
<path d="M27.1108 21.3609C27.2853 21.1786 27.4221 20.9637 27.5133 20.7284C27.705 20.2617 27.705 19.7384 27.5133 19.2717C27.4221 19.0364 27.2853 18.8215 27.1108 18.6392L21.3608 12.8892C20.9999 12.5283 20.5104 12.3255 20 12.3255C19.4896 12.3255 19.0001 12.5283 18.6392 12.8892C18.2782 13.2501 18.0755 13.7396 18.0755 14.25C18.0755 14.7605 18.2782 15.25 18.6392 15.6109L21.1308 18.0834H14.25C13.7417 18.0834 13.2541 18.2853 12.8947 18.6448C12.5353 19.0042 12.3333 19.4917 12.3333 20C12.3333 20.5084 12.5353 20.9959 12.8947 21.3553C13.2541 21.7148 13.7417 21.9167 14.25 21.9167H21.1308L18.6392 24.3892C18.4595 24.5674 18.3169 24.7794 18.2196 25.0129C18.1223 25.2465 18.0722 25.497 18.0722 25.75C18.0722 26.0031 18.1223 26.2536 18.2196 26.4872C18.3169 26.7207 18.4595 26.9327 18.6392 27.1109C18.8173 27.2905 19.0293 27.4331 19.2629 27.5304C19.4964 27.6277 19.747 27.6778 20 27.6778C20.253 27.6778 20.5035 27.6277 20.7371 27.5304C20.9707 27.4331 21.1826 27.2905 21.3608 27.1109L27.1108 21.3609ZM39.1667 20C39.1667 16.2092 38.0425 12.5036 35.9365 9.35162C33.8304 6.19968 30.837 3.74304 27.3348 2.29236C23.8325 0.841679 19.9787 0.462115 16.2608 1.20166C12.5428 1.94121 9.12761 3.76666 6.44711 6.44717C3.7666 9.12768 1.94115 12.5428 1.2016 16.2608C0.462054 19.9788 0.841618 23.8326 2.2923 27.3348C3.74298 30.8371 6.19962 33.8305 9.35156 35.9365C12.5035 38.0426 16.2092 39.1667 20 39.1667C25.0833 39.1667 29.9584 37.1474 33.5529 33.5529C37.1473 29.9585 39.1667 25.0834 39.1667 20V20ZM4.66665 20C4.66665 16.9674 5.56594 14.0029 7.25079 11.4813C8.93564 8.95975 11.3304 6.99444 14.1322 5.8339C16.934 4.67335 20.017 4.3697 22.9914 4.96134C25.9657 5.55298 28.6979 7.01334 30.8423 9.15774C32.9867 11.3022 34.4471 14.0343 35.0387 17.0087C35.6303 19.983 35.3267 23.0661 34.1661 25.8679C33.0056 28.6697 31.0403 31.0644 28.5187 32.7492C25.9972 34.4341 23.0326 35.3334 20 35.3334C15.9333 35.3334 12.0332 33.7179 9.15768 30.8424C6.28213 27.9668 4.66665 24.0667 4.66665 20V20Z" fill="white"/>
</svg>
