<svg width="46" height="46" viewBox="0 0 46 46" fill="none" xmlns="http://www.w3.org/2000/svg">
<path d="M38.3333 15.6785V5.75016C38.3333 5.24183 38.1314 4.75432 37.772 4.39487C37.4125 4.03543 36.925 3.8335 36.4167 3.8335C35.9083 3.8335 35.4208 4.03543 35.0614 4.39487C34.7019 4.75432 34.5 5.24183 34.5 5.75016V15.6785C33.39 16.0814 32.4309 16.8163 31.7531 17.7833C31.0753 18.7503 30.7118 19.9026 30.7118 21.0835C30.7118 22.2644 31.0753 23.4167 31.7531 24.3837C32.4309 25.3507 33.39 26.0856 34.5 26.4885V40.2502C34.5 40.7585 34.7019 41.246 35.0614 41.6055C35.4208 41.9649 35.9083 42.1668 36.4167 42.1668C36.925 42.1668 37.4125 41.9649 37.772 41.6055C38.1314 41.246 38.3333 40.7585 38.3333 40.2502V26.4885C39.4434 26.0856 40.4025 25.3507 41.0802 24.3837C41.758 23.4167 42.1216 22.2644 42.1216 21.0835C42.1216 19.9026 41.758 18.7503 41.0802 17.7833C40.4025 16.8163 39.4434 16.0814 38.3333 15.6785V15.6785ZM36.4167 23.0002C36.0376 23.0002 35.667 22.8878 35.3518 22.6771C35.0366 22.4665 34.791 22.1672 34.6459 21.817C34.5008 21.4667 34.4629 21.0814 34.5368 20.7096C34.6108 20.3378 34.7933 19.9963 35.0614 19.7282C35.3294 19.4602 35.6709 19.2776 36.0427 19.2037C36.4145 19.1297 36.7999 19.1677 37.1501 19.3127C37.5004 19.4578 37.7997 19.7035 38.0103 20.0187C38.2209 20.3338 38.3333 20.7044 38.3333 21.0835C38.3333 21.5918 38.1314 22.0793 37.772 22.4388C37.4125 22.7982 36.925 23.0002 36.4167 23.0002ZM24.9167 27.1785V5.75016C24.9167 5.24183 24.7147 4.75432 24.3553 4.39487C23.9958 4.03543 23.5083 3.8335 23 3.8335C22.4917 3.8335 22.0042 4.03543 21.6447 4.39487C21.2853 4.75432 21.0833 5.24183 21.0833 5.75016V27.1785C19.9733 27.5814 19.0142 28.3163 18.3364 29.2833C17.6587 30.2503 17.2951 31.4026 17.2951 32.5835C17.2951 33.7644 17.6587 34.9167 18.3364 35.8837C19.0142 36.8507 19.9733 37.5856 21.0833 37.9885V40.2502C21.0833 40.7585 21.2853 41.246 21.6447 41.6055C22.0042 41.9649 22.4917 42.1668 23 42.1668C23.5083 42.1668 23.9958 41.9649 24.3553 41.6055C24.7147 41.246 24.9167 40.7585 24.9167 40.2502V37.9885C26.0267 37.5856 26.9858 36.8507 27.6636 35.8837C28.3413 34.9167 28.7049 33.7644 28.7049 32.5835C28.7049 31.4026 28.3413 30.2503 27.6636 29.2833C26.9858 28.3163 26.0267 27.5814 24.9167 27.1785ZM23 34.5002C22.6209 34.5002 22.2504 34.3878 21.9352 34.1771C21.62 33.9665 21.3743 33.6672 21.2292 33.317C21.0842 32.9667 21.0462 32.5814 21.1202 32.2096C21.1941 31.8378 21.3767 31.4963 21.6447 31.2282C21.9128 30.9602 22.2543 30.7776 22.6261 30.7037C22.9979 30.6297 23.3833 30.6677 23.7335 30.8127C24.0837 30.9578 24.383 31.2035 24.5937 31.5187C24.8043 31.8338 24.9167 32.2044 24.9167 32.5835C24.9167 33.0918 24.7147 33.5793 24.3553 33.9388C23.9958 34.2982 23.5083 34.5002 23 34.5002ZM11.5 11.8452V5.75016C11.5 5.24183 11.2981 4.75432 10.9386 4.39487C10.5792 4.03543 10.0917 3.8335 9.58333 3.8335C9.075 3.8335 8.58749 4.03543 8.22804 4.39487C7.8686 4.75432 7.66667 5.24183 7.66667 5.75016V11.8452C6.55662 12.2481 5.59755 12.983 4.91978 13.95C4.24201 14.917 3.87842 16.0693 3.87842 17.2502C3.87842 18.4311 4.24201 19.5833 4.91978 20.5503C5.59755 21.5174 6.55662 22.2523 7.66667 22.6552V40.2502C7.66667 40.7585 7.8686 41.246 8.22804 41.6055C8.58749 41.9649 9.075 42.1668 9.58333 42.1668C10.0917 42.1668 10.5792 41.9649 10.9386 41.6055C11.2981 41.246 11.5 40.7585 11.5 40.2502V22.6552C12.61 22.2523 13.5691 21.5174 14.2469 20.5503C14.9247 19.5833 15.2882 18.4311 15.2882 17.2502C15.2882 16.0693 14.9247 14.917 14.2469 13.95C13.5691 12.983 12.61 12.2481 11.5 11.8452V11.8452ZM9.58333 19.1668C9.20425 19.1668 8.83368 19.0544 8.51849 18.8438C8.2033 18.6332 7.95763 18.3339 7.81256 17.9836C7.66749 17.6334 7.62954 17.248 7.70349 16.8762C7.77745 16.5044 7.95999 16.1629 8.22804 15.8949C8.4961 15.6268 8.83761 15.4443 9.20941 15.3703C9.58121 15.2964 9.96658 15.3343 10.3168 15.4794C10.667 15.6245 10.9664 15.8701 11.177 16.1853C11.3876 16.5005 11.5 16.8711 11.5 17.2502C11.5 17.7585 11.2981 18.246 10.9386 18.6055C10.5792 18.9649 10.0917 19.1668 9.58333 19.1668Z" fill="black"/>
</svg>
