<svg width="33" height="33" viewBox="0 0 33 33" fill="none" xmlns="http://www.w3.org/2000/svg">
<path d="M9.625 20.625H13.75C14.1147 20.625 14.4644 20.4801 14.7223 20.2223C14.9801 19.9644 15.125 19.6147 15.125 19.25C15.125 18.8853 14.9801 18.5356 14.7223 18.2777C14.4644 18.0199 14.1147 17.875 13.75 17.875H9.625C9.26033 17.875 8.91059 18.0199 8.65273 18.2777C8.39487 18.5356 8.25 18.8853 8.25 19.25C8.25 19.6147 8.39487 19.9644 8.65273 20.2223C8.91059 20.4801 9.26033 20.625 9.625 20.625ZM26.125 6.875H6.875C5.78098 6.875 4.73177 7.3096 3.95818 8.08318C3.1846 8.85677 2.75 9.90598 2.75 11V23.375C2.75 24.469 3.1846 25.5182 3.95818 26.2918C4.73177 27.0654 5.78098 27.5 6.875 27.5H26.125C27.219 27.5 28.2682 27.0654 29.0418 26.2918C29.8154 25.5182 30.25 24.469 30.25 23.375V11C30.25 9.90598 29.8154 8.85677 29.0418 8.08318C28.2682 7.3096 27.219 6.875 26.125 6.875ZM27.5 23.375C27.5 23.7397 27.3551 24.0894 27.0973 24.3473C26.8394 24.6051 26.4897 24.75 26.125 24.75H6.875C6.51033 24.75 6.16059 24.6051 5.90273 24.3473C5.64487 24.0894 5.5 23.7397 5.5 23.375V15.125H27.5V23.375ZM27.5 12.375H5.5V11C5.5 10.6353 5.64487 10.2856 5.90273 10.0277C6.16059 9.76987 6.51033 9.625 6.875 9.625H26.125C26.4897 9.625 26.8394 9.76987 27.0973 10.0277C27.3551 10.2856 27.5 10.6353 27.5 11V12.375Z" fill="#636363"/>
</svg>
