<svg width="37" height="37" viewBox="0 0 37 37" fill="none" xmlns="http://www.w3.org/2000/svg">
<path d="M30.34 10.6067C28.769 9.78107 26.9371 9.60397 25.2371 10.1134C25.1543 8.38436 24.4092 6.75353 23.1562 5.55915C21.9033 4.36477 20.2387 3.69849 18.5077 3.69849C16.7767 3.69849 15.1121 4.36477 13.8592 5.55915C12.6062 6.75353 11.8611 8.38436 11.7783 10.1134C10.0829 9.6028 8.25618 9.76285 6.6754 10.5605C5.51128 11.1723 4.55169 12.1115 3.91498 13.2623C3.27827 14.413 2.99227 15.7249 3.09226 17.0362C3.19225 18.3475 3.67385 19.6009 4.47767 20.6418C5.28149 21.6827 6.37238 22.4655 7.61581 22.8938C6.82214 24.0231 6.39188 25.3677 6.38248 26.748C6.38933 27.1355 6.4254 27.5221 6.4904 27.9042C6.75002 29.4698 7.5577 30.8922 8.7692 31.9173C9.9807 32.9425 11.5171 33.5036 13.1041 33.5005C13.4327 33.523 13.7623 33.523 14.0908 33.5005C15.853 33.2229 17.436 32.2653 18.5 30.8334C19.575 32.2421 21.1566 33.1767 22.9091 33.4388C23.2376 33.4613 23.5673 33.4613 23.8958 33.4388C25.1263 33.4374 26.3328 33.0982 27.3838 32.4583C28.4347 31.8184 29.2899 30.9022 29.856 29.8097C30.4222 28.7172 30.6775 27.4903 30.5943 26.2626C30.5111 25.0349 30.0925 23.8537 29.3841 22.8475C30.6336 22.4267 31.7318 21.6476 32.5418 20.6073C33.3519 19.567 33.8382 18.3115 33.94 16.9969C34.0419 15.6824 33.7549 14.3669 33.1148 13.2142C32.4747 12.0616 31.5097 11.1226 30.34 10.5142V10.6067ZM15.9408 7.61588C16.6295 6.95629 17.5463 6.58809 18.5 6.58809C19.4536 6.58809 20.3704 6.95629 21.0591 7.61588C21.585 8.1425 21.942 8.81379 22.0848 9.54415C22.2276 10.2745 22.1496 11.0309 21.8608 11.7167L21.46 12.6263L20.4425 13.5205C19.8169 13.3057 19.1613 13.1913 18.5 13.1813C17.6452 13.1821 16.8 13.3606 16.0179 13.7055L15.1546 11.7167C14.8554 11.0339 14.7703 10.2763 14.9107 9.54417C15.0511 8.812 15.4103 8.13964 15.9408 7.61588V7.61588ZM6.53665 18.1609C6.19248 17.4036 6.11704 16.5515 6.3228 15.7455C6.52856 14.9395 7.00319 14.2278 7.66824 13.7281C8.33329 13.2284 9.14895 12.9706 9.98037 12.9973C10.8118 13.0241 11.6092 13.3337 12.2408 13.875L12.9962 14.538L13.5358 15.7713C12.7635 16.8046 12.3421 18.058 12.3333 19.348C12.315 19.5789 12.315 19.8108 12.3333 20.0417H11.4854L10.1904 20.165C9.4497 20.2432 8.7028 20.0931 8.04978 19.7349C7.39676 19.3767 6.8688 18.8275 6.53665 18.1609V18.1609ZM16.7116 27.5342C16.5261 28.3572 16.0625 29.0911 15.3991 29.6123C14.7357 30.1335 13.9129 30.4102 13.0694 30.3957C12.2258 30.3812 11.4131 30.0765 10.7679 29.5328C10.1228 28.9891 9.68471 28.2398 9.52748 27.4109C9.5127 27.1953 9.5127 26.979 9.52748 26.7634C9.53307 26.1368 9.70248 25.5225 10.0189 24.9816C10.3353 24.4407 10.7877 23.992 11.3312 23.68L12.1175 23.125L13.5204 22.9709C14.4046 24.201 15.7107 25.0626 17.1896 25.3913L16.7116 27.5342ZM18.5 22.4313C17.8902 22.4313 17.294 22.2505 16.787 21.9117C16.2799 21.5729 15.8847 21.0913 15.6514 20.5279C15.418 19.9645 15.3569 19.3445 15.4759 18.7464C15.5949 18.1483 15.8885 17.5989 16.3197 17.1677C16.7509 16.7365 17.3003 16.4428 17.8985 16.3239C18.4966 16.2049 19.1165 16.266 19.6799 16.4993C20.2433 16.7327 20.7249 17.1279 21.0637 17.635C21.4025 18.142 21.5833 18.7381 21.5833 19.348C21.5833 20.1657 21.2585 20.95 20.6802 21.5282C20.102 22.1064 19.3177 22.4313 18.5 22.4313ZM27.4725 27.3955C27.3134 28.3361 26.7913 29.1767 26.0185 29.7361C25.2457 30.2955 24.2841 30.529 23.3408 30.3863C22.5975 30.2816 21.904 29.9523 21.353 29.4426C20.8019 28.9329 20.4197 28.2671 20.2575 27.5342L20.0416 26.6092L20.3654 25.1909C21.7876 24.7277 22.993 23.7634 23.7571 22.4775L24.5279 22.94H24.6666L25.6841 23.5413C26.3452 23.9188 26.8725 24.4926 27.1929 25.1832C27.5134 25.8738 27.6111 26.6469 27.4725 27.3955V27.3955ZM30.4633 18.1455C30.1601 18.7582 29.6924 19.2746 29.1124 19.6367C28.5325 19.9988 27.8633 20.1924 27.1796 20.1959H26.8096L25.8229 20.0417L24.6666 19.4096C24.6645 17.9107 24.1164 16.4638 23.125 15.3396L23.7879 14.7692L24.7591 13.875C25.3925 13.3119 26.202 12.9865 27.0489 12.9546C27.8958 12.9226 28.7275 13.186 29.4016 13.6998C30.0756 14.2135 30.5501 14.9456 30.7438 15.7707C30.9375 16.5958 30.8384 17.4625 30.4633 18.2225V18.1455Z" fill="#EFEFEF"/>
</svg>
