<svg width="30" height="30" viewBox="0 0 30 30" fill="none" xmlns="http://www.w3.org/2000/svg">
<path d="M25.2 6.25002C23.875 4.92153 22.1185 4.1107 20.2479 3.96399C18.3773 3.81727 16.516 4.34436 15 5.45002C13.4096 4.26707 11.43 3.73066 9.45991 3.94882C7.48982 4.16698 5.67556 5.1235 4.38248 6.62575C3.08939 8.12801 2.41354 10.0644 2.49101 12.045C2.56848 14.0257 3.39353 15.9034 4.80001 17.3L12.5625 25.075C13.2125 25.7147 14.088 26.0733 15 26.0733C15.912 26.0733 16.7875 25.7147 17.4375 25.075L25.2 17.3C26.6595 15.8316 27.4787 13.8454 27.4787 11.775C27.4787 9.70468 26.6595 7.71844 25.2 6.25002V6.25002ZM23.4375 15.575L15.675 23.3375C15.5867 23.4267 15.4815 23.4975 15.3657 23.5458C15.2498 23.5942 15.1255 23.619 15 23.619C14.8745 23.619 14.7502 23.5942 14.6343 23.5458C14.5185 23.4975 14.4133 23.4267 14.325 23.3375L6.56251 15.5375C5.58221 14.5355 5.03327 13.1894 5.03327 11.7875C5.03327 10.3857 5.58221 9.03959 6.56251 8.03752C7.56145 7.05126 8.90872 6.49823 10.3125 6.49823C11.7163 6.49823 13.0636 7.05126 14.0625 8.03752C14.1787 8.15468 14.317 8.24768 14.4693 8.31114C14.6216 8.3746 14.785 8.40727 14.95 8.40727C15.115 8.40727 15.2784 8.3746 15.4307 8.31114C15.5831 8.24768 15.7213 8.15468 15.8375 8.03752C16.8365 7.05126 18.1837 6.49823 19.5875 6.49823C20.9913 6.49823 22.3386 7.05126 23.3375 8.03752C24.3313 9.02646 24.8982 10.3653 24.9169 11.7671C24.9356 13.169 24.4046 14.5224 23.4375 15.5375V15.575Z" fill="white"/>
</svg>
