<svg width="33" height="33" viewBox="0 0 33 33" fill="none" xmlns="http://www.w3.org/2000/svg">
<path d="M16.5 2.75C13.5826 2.75 10.7847 3.90893 8.72183 5.97183C6.65893 8.03473 5.5 10.8326 5.5 13.75C5.5 21.175 15.1938 29.5625 15.6063 29.92C15.8553 30.133 16.1723 30.2501 16.5 30.2501C16.8277 30.2501 17.1447 30.133 17.3937 29.92C17.875 29.5625 27.5 21.175 27.5 13.75C27.5 10.8326 26.3411 8.03473 24.2782 5.97183C22.2153 3.90893 19.4174 2.75 16.5 2.75V2.75ZM16.5 27.0187C13.5712 24.2687 8.25 18.3425 8.25 13.75C8.25 11.562 9.11919 9.46354 10.6664 7.91637C12.2135 6.36919 14.312 5.5 16.5 5.5C18.688 5.5 20.7865 6.36919 22.3336 7.91637C23.8808 9.46354 24.75 11.562 24.75 13.75C24.75 18.3425 19.4288 24.2825 16.5 27.0187ZM16.5 8.25C15.4122 8.25 14.3488 8.57257 13.4444 9.17692C12.5399 9.78126 11.8349 10.6402 11.4187 11.6452C11.0024 12.6502 10.8935 13.7561 11.1057 14.823C11.3179 15.8899 11.8417 16.8699 12.6109 17.6391C13.3801 18.4083 14.3601 18.9321 15.427 19.1443C16.4939 19.3565 17.5998 19.2476 18.6048 18.8313C19.6098 18.4151 20.4687 17.7101 21.0731 16.8056C21.6774 15.9012 22 14.8378 22 13.75C22 12.2913 21.4205 10.8924 20.3891 9.86091C19.3576 8.82946 17.9587 8.25 16.5 8.25ZM16.5 16.5C15.9561 16.5 15.4244 16.3387 14.9722 16.0365C14.5199 15.7344 14.1675 15.3049 13.9593 14.8024C13.7512 14.2999 13.6967 13.7469 13.8028 13.2135C13.9089 12.6801 14.1709 12.1901 14.5555 11.8055C14.9401 11.4209 15.4301 11.1589 15.9635 11.0528C16.4969 10.9467 17.0499 11.0012 17.5524 11.2093C18.0549 11.4175 18.4844 11.7699 18.7865 12.2222C19.0887 12.6744 19.25 13.2061 19.25 13.75C19.25 14.4793 18.9603 15.1788 18.4445 15.6945C17.9288 16.2103 17.2293 16.5 16.5 16.5Z" fill="#636363"/>
</svg>
