<svg width="44" height="44" viewBox="0 0 44 44" fill="none" xmlns="http://www.w3.org/2000/svg">
<path d="M36.96 8.45173C35.0135 6.50474 32.433 5.321 29.6876 5.11576C26.9422 4.91053 24.2143 5.69745 22 7.3334C19.6673 5.5984 16.764 4.81167 13.8745 5.13163C10.985 5.4516 8.32412 6.85449 6.42759 9.0578C4.53107 11.2611 3.53982 14.1012 3.65344 17.0061C3.76707 19.911 4.97714 22.665 7.03998 24.7134L20.6983 38.3717C20.8687 38.5436 21.0715 38.68 21.2949 38.773C21.5183 38.8661 21.758 38.914 22 38.914C22.242 38.914 22.4816 38.8661 22.705 38.773C22.9284 38.68 23.1312 38.5436 23.3016 38.3717L36.96 24.7134C38.0282 23.6459 38.8756 22.3784 39.4537 20.9832C40.0319 19.5881 40.3294 18.0927 40.3294 16.5826C40.3294 15.0724 40.0319 13.577 39.4537 12.1819C38.8756 10.7868 38.0282 9.51924 36.96 8.45173ZM34.375 22.1284L22 34.4851L9.62498 22.1284C8.53446 21.0333 7.7916 19.6407 7.48956 18.125C7.18753 16.6094 7.33978 15.0383 7.92722 13.6089C8.51466 12.1795 9.51112 10.9553 10.7916 10.09C12.0721 9.22476 13.5796 8.75687 15.125 8.74507C17.1895 8.75012 19.1677 9.57435 20.625 11.0367C20.7954 11.2086 20.9982 11.345 21.2216 11.438C21.445 11.5311 21.6846 11.579 21.9266 11.579C22.1687 11.579 22.4083 11.5311 22.6317 11.438C22.8551 11.345 23.0579 11.2086 23.2283 11.0367C24.7286 9.73668 26.6667 9.05516 28.6505 9.13011C30.6342 9.20506 32.5154 10.0309 33.9133 11.4404C35.3112 12.85 36.1214 14.7379 36.1799 16.7222C36.2383 18.7066 35.5408 20.639 34.2283 22.1284H34.375Z" fill="black"/>
</svg>
