<svg width="42" height="42" viewBox="0 0 42 42" fill="none" xmlns="http://www.w3.org/2000/svg">
<path d="M37.0475 3.60503C35.7931 3.38896 34.5229 3.27775 33.25 3.27253C28.9071 3.26897 24.6548 4.51428 21 6.86003C17.3358 4.54508 13.0841 3.33033 8.75 3.36003C7.47713 3.36525 6.2069 3.47646 4.9525 3.69253C4.54161 3.76337 4.16951 3.97858 3.90322 4.29942C3.63693 4.62025 3.49393 5.02562 3.5 5.44253V26.4425C3.49625 26.6997 3.54922 26.9545 3.65513 27.1888C3.76105 27.4231 3.91731 27.6313 4.1128 27.7983C4.30829 27.9654 4.5382 28.0874 4.78617 28.1555C5.03414 28.2236 5.29408 28.2363 5.5475 28.1925C8.05528 27.7583 10.6246 27.8304 13.1041 28.4044C15.5836 28.9785 17.9232 30.0429 19.985 31.535L20.195 31.6575H20.3875C20.5816 31.7384 20.7897 31.78 21 31.78C21.2102 31.78 21.4184 31.7384 21.6125 31.6575H21.805L22.015 31.535C24.0624 30.0095 26.3953 28.9106 28.8753 28.3034C31.3552 27.6962 33.9319 27.593 36.4525 28C36.7059 28.0438 36.9659 28.0311 37.2138 27.963C37.4618 27.8949 37.6917 27.7729 37.8872 27.6058C38.0827 27.4388 38.2389 27.2306 38.3449 26.9963C38.4508 26.762 38.5037 26.5072 38.5 26.25V5.25003C38.4818 4.8513 38.3278 4.47077 38.0636 4.17157C37.7994 3.87237 37.4409 3.67247 37.0475 3.60503ZM19.25 26.8625C16.0123 25.1592 12.4084 24.2703 8.75 24.2725C8.1725 24.2725 7.595 24.2725 7 24.2725V6.77253C7.58285 6.73894 8.16715 6.73894 8.75 6.77253C12.4834 6.7684 16.1354 7.86399 19.25 9.92253V26.8625ZM35 24.3425C34.405 24.3425 33.8275 24.3425 33.25 24.3425C29.5916 24.3403 25.9877 25.2292 22.75 26.9325V9.92253C25.8646 7.86399 29.5166 6.7684 33.25 6.77253C33.8328 6.73894 34.4171 6.73894 35 6.77253V24.3425ZM37.0475 31.605C35.7931 31.389 34.5229 31.2777 33.25 31.2725C28.9071 31.269 24.6548 32.5143 21 34.86C17.3451 32.5143 13.0929 31.269 8.75 31.2725C7.47713 31.2777 6.2069 31.389 4.9525 31.605C4.72469 31.6412 4.50629 31.722 4.30983 31.8429C4.11337 31.9637 3.94275 32.1222 3.80776 32.3092C3.67278 32.4963 3.5761 32.7081 3.52328 32.9327C3.47046 33.1572 3.46255 33.3899 3.5 33.6175C3.58893 34.072 3.85435 34.4727 4.23813 34.7318C4.6219 34.9909 5.09274 35.0874 5.5475 35C8.05528 34.5658 10.6246 34.6379 13.1041 35.2119C15.5836 35.786 17.9232 36.8504 19.985 38.3425C20.2814 38.5536 20.6362 38.667 21 38.667C21.3638 38.667 21.7186 38.5536 22.015 38.3425C24.0768 36.8504 26.4164 35.786 28.8959 35.2119C31.3754 34.6379 33.9447 34.5658 36.4525 35C36.9073 35.0874 37.3781 34.9909 37.7619 34.7318C38.1456 34.4727 38.4111 34.072 38.5 33.6175C38.5374 33.3899 38.5295 33.1572 38.4767 32.9327C38.4239 32.7081 38.3272 32.4963 38.1922 32.3092C38.0572 32.1222 37.8866 31.9637 37.6902 31.8429C37.4937 31.722 37.2753 31.6412 37.0475 31.605V31.605Z" fill="black"/>
</svg>
