<svg width="31" height="31" viewBox="0 0 31 31" fill="none" xmlns="http://www.w3.org/2000/svg">
<circle cx="15.5" cy="15.5" r="15.5" fill="#EFEFEF"/>
<path d="M26 10.24C26.0008 10.1084 25.9756 9.97795 25.9258 9.85611C25.876 9.73427 25.8027 9.62346 25.71 9.53002L21.47 5.29002C21.3766 5.19734 21.2658 5.12401 21.1439 5.07425C21.0221 5.02448 20.8916 4.99926 20.76 5.00002C20.6284 4.99926 20.4979 5.02448 20.3761 5.07425C20.2543 5.12401 20.1435 5.19734 20.05 5.29002L17.22 8.12002L6.29002 19.05C6.19734 19.1435 6.12401 19.2543 6.07425 19.3761C6.02448 19.4979 5.99926 19.6284 6.00002 19.76V24C6.00002 24.2652 6.10537 24.5196 6.29291 24.7071C6.48045 24.8947 6.7348 25 7.00002 25H11.24C11.3799 25.0076 11.5199 24.9857 11.6508 24.9358C11.7818 24.8858 11.9007 24.8089 12 24.71L22.87 13.78L25.71 11C25.8013 10.9031 25.8757 10.7915 25.93 10.67C25.9397 10.5903 25.9397 10.5097 25.93 10.43C25.9347 10.3835 25.9347 10.3366 25.93 10.29L26 10.24ZM10.83 23H8.00002V20.17L17.93 10.24L20.76 13.07L10.83 23ZM22.17 11.66L19.34 8.83002L20.76 7.42002L23.58 10.24L22.17 11.66Z" fill="black"/>
</svg>
