<svg width="44" height="44" viewBox="0 0 44 44" fill="none" xmlns="http://www.w3.org/2000/svg">
	<path fill-rule="evenodd" clip-rule="evenodd" d="M1.70711 0.292893C1.31658 -0.097631 0.683418 -0.097631 0.292893 0.292893C-0.097631 0.683418 -0.097631 1.31658 0.292893 1.70711L2.71149 4.12571C2.65013 4.19109 2.59007 4.25791 2.53134 4.32614C1.49687 5.52794 0.956188 7.07707 1.01817 8.66157C1.08015 10.2461 1.74018 11.7482 2.86537 12.8656L9.07537 19.0856C9.59538 19.5973 10.2958 19.8842 11.0254 19.8842C11.755 19.8842 12.4553 19.5973 12.9754 19.0856L15.3215 16.7357L18.0632 19.4775C18.4538 19.868 19.0869 19.868 19.4775 19.4775C19.868 19.0869 19.868 18.4538 19.4775 18.0632L1.70711 0.292893ZM13.9234 15.3376L4.16189 5.57611C3.44889 6.36351 3.05198 7.38938 3.05198 8.45555C3.05198 9.57702 3.49112 10.6539 4.27537 11.4556L10.4854 17.6956C10.556 17.7669 10.6401 17.8235 10.7328 17.8622C10.8255 17.9009 10.9249 17.9208 11.0254 17.9208C11.1258 17.9208 11.2252 17.9009 11.3179 17.8622C11.4106 17.8235 11.4947 17.7669 11.5654 17.6956L13.9234 15.3376ZM17.7754 11.4856L16.3248 12.9361L17.721 14.3323L19.1854 12.8656C20.3529 11.6908 21.0083 10.1018 21.0083 8.44555C21.0083 6.78928 20.3529 5.20028 19.1854 4.02555C18.1253 2.96276 16.7202 2.31409 15.2237 2.19672C13.7272 2.07935 12.2381 2.50102 11.0254 3.38555C9.75302 2.43919 8.16936 2.01006 6.59329 2.18459C6.30077 2.21698 6.01254 2.26972 5.73048 2.34182L7.62729 4.23864C8.62162 4.32083 9.56011 4.74937 10.2754 5.45555C10.3683 5.54928 10.4789 5.62367 10.6008 5.67444C10.7226 5.72521 10.8534 5.75135 10.9854 5.75135C11.1174 5.75135 11.2481 5.72521 11.3699 5.67444C11.4918 5.62367 11.6024 5.54928 11.6954 5.45555C12.4945 4.66654 13.5723 4.22412 14.6954 4.22412C15.8184 4.22412 16.8962 4.66654 17.6954 5.45555C18.4904 6.2467 18.944 7.31774 18.9589 8.43924C18.9739 9.56073 18.549 10.6435 17.7754 11.4556V11.4856Z" fill="white"/>
</svg>
