<svg width="44" height="44" viewBox="0 0 44 44" fill="none" xmlns="http://www.w3.org/2000/svg">
<path d="M27.1516 22.5134C28.3121 21.2672 28.9658 19.6328 28.985 17.9301C28.985 16.0921 28.2548 14.3295 26.9552 13.0298C25.6556 11.7302 23.8929 11.0001 22.055 11.0001C20.217 11.0001 18.4543 11.7302 17.1547 13.0298C15.8551 14.3295 15.125 16.0921 15.125 17.9301C15.1441 19.6328 15.7978 21.2672 16.9583 22.5134C15.3425 23.318 13.952 24.5116 12.912 25.9869C11.8719 27.4622 11.2149 29.1729 11 30.9651C10.9465 31.4513 11.0883 31.9389 11.3943 32.3205C11.7003 32.7021 12.1454 32.9466 12.6316 33.0001C13.1179 33.0536 13.6054 32.9117 13.9871 32.6057C14.3687 32.2997 14.6131 31.8546 14.6666 31.3684C14.8854 29.5922 15.7462 27.9572 17.0868 26.7716C18.4274 25.586 20.1553 24.9315 21.945 24.9315C23.7346 24.9315 25.4625 25.586 26.8031 26.7716C28.1437 27.9572 29.0045 29.5922 29.2233 31.3684C29.2743 31.8385 29.5049 32.2707 29.8671 32.5748C30.2292 32.8788 30.6948 33.0312 31.1666 33.0001H31.3683C31.8489 32.9448 32.2881 32.7018 32.5903 32.324C32.8925 31.9463 33.0332 31.4644 32.9816 30.9834C32.7826 29.2006 32.1463 27.4946 31.1293 26.017C30.1122 24.5394 28.7458 23.3358 27.1516 22.5134V22.5134ZM22 21.1934C21.3545 21.1934 20.7236 21.002 20.1869 20.6434C19.6503 20.2849 19.232 19.7752 18.985 19.1789C18.738 18.5826 18.6734 17.9265 18.7993 17.2934C18.9252 16.6604 19.236 16.0789 19.6924 15.6226C20.1488 15.1662 20.7303 14.8554 21.3633 14.7295C21.9963 14.6035 22.6525 14.6682 23.2488 14.9152C23.8451 15.1621 24.3547 15.5804 24.7133 16.1171C25.0719 16.6537 25.2633 17.2847 25.2633 17.9301C25.2633 18.7956 24.9195 19.6256 24.3075 20.2376C23.6955 20.8496 22.8654 21.1934 22 21.1934V21.1934ZM34.8333 3.66675H9.16663C7.70794 3.66675 6.30899 4.24621 5.27754 5.27766C4.24609 6.30911 3.66663 7.70806 3.66663 9.16675V34.8334C3.66663 36.2921 4.24609 37.6911 5.27754 38.7225C6.30899 39.754 7.70794 40.3334 9.16663 40.3334H34.8333C36.292 40.3334 37.6909 39.754 38.7224 38.7225C39.7538 37.6911 40.3333 36.2921 40.3333 34.8334V9.16675C40.3333 7.70806 39.7538 6.30911 38.7224 5.27766C37.6909 4.24621 36.292 3.66675 34.8333 3.66675ZM36.6666 34.8334C36.6666 35.3196 36.4735 35.786 36.1297 36.1298C35.7858 36.4736 35.3195 36.6667 34.8333 36.6667H9.16663C8.6804 36.6667 8.21408 36.4736 7.87026 36.1298C7.52645 35.786 7.33329 35.3196 7.33329 34.8334V9.16675C7.33329 8.68052 7.52645 8.2142 7.87026 7.87039C8.21408 7.52657 8.6804 7.33341 9.16663 7.33341H34.8333C35.3195 7.33341 35.7858 7.52657 36.1297 7.87039C36.4735 8.2142 36.6666 8.68052 36.6666 9.16675V34.8334Z" fill="white"/>
</svg>
