<svg width="44" height="44" viewBox="0 0 44 44" fill="none" xmlns="http://www.w3.org/2000/svg">
<path d="M25.6666 32.9999C26.1528 32.9999 26.6192 32.8068 26.963 32.463C27.3068 32.1192 27.4999 31.6528 27.4999 31.1666V27.4999C27.4999 27.0137 27.3068 26.5474 26.963 26.2036C26.6192 25.8598 26.1528 25.6666 25.6666 25.6666C25.1804 25.6666 24.7141 25.8598 24.3703 26.2036C24.0264 26.5474 23.8333 27.0137 23.8333 27.4999V31.1666C23.8333 31.6528 24.0264 32.1192 24.3703 32.463C24.7141 32.8068 25.1804 32.9999 25.6666 32.9999ZM18.3333 32.9999C18.8195 32.9999 19.2858 32.8068 19.6296 32.463C19.9735 32.1192 20.1666 31.6528 20.1666 31.1666V27.4999C20.1666 27.0137 19.9735 26.5474 19.6296 26.2036C19.2858 25.8598 18.8195 25.6666 18.3333 25.6666C17.847 25.6666 17.3807 25.8598 17.0369 26.2036C16.6931 26.5474 16.4999 27.0137 16.4999 27.4999V31.1666C16.4999 31.6528 16.6931 32.1192 17.0369 32.463C17.3807 32.8068 17.847 32.9999 18.3333 32.9999ZM34.8333 10.9999H32.3033L29.1316 4.67495C29.0347 4.44221 28.8908 4.23197 28.709 4.05735C28.5271 3.88273 28.3112 3.7475 28.0748 3.66009C27.8383 3.57269 27.5863 3.535 27.3346 3.54937C27.0829 3.56374 26.8369 3.62987 26.6119 3.74363C26.3869 3.85739 26.1878 4.01632 26.0271 4.21051C25.8663 4.40469 25.7473 4.62995 25.6775 4.8722C25.6077 5.11446 25.5886 5.36851 25.6214 5.61847C25.6543 5.86843 25.7383 6.10893 25.8683 6.32495L28.1966 10.9999H15.8033L18.1316 6.32495C18.3096 5.89761 18.3193 5.41877 18.1588 4.98457C17.9983 4.55037 17.6795 4.19296 17.2664 3.98409C16.8533 3.77521 16.3765 3.73034 15.9316 3.85849C15.4868 3.98664 15.1069 4.27831 14.8683 4.67495L11.6966 10.9999H9.16661C7.87079 11.0197 6.62355 11.4963 5.64487 12.3459C4.66619 13.1954 4.01893 14.3632 3.81726 15.6434C3.61559 16.9236 3.87245 18.2339 4.54255 19.3432C5.21265 20.4524 6.25294 21.2895 7.47995 21.7066L8.83661 35.3833C8.97342 36.7447 9.61274 38.0062 10.6297 38.9215C11.6467 39.8368 12.9684 40.3401 14.3366 40.3333H29.6999C31.0682 40.3401 32.3898 39.8368 33.4068 38.9215C34.4238 38.0062 35.0631 36.7447 35.1999 35.3833L36.5566 21.7066C37.7863 21.2882 38.8282 20.4482 39.4978 19.3352C40.1675 18.2222 40.4216 16.9081 40.2152 15.6257C40.0088 14.3433 39.3551 13.1754 38.3701 12.3287C37.385 11.482 36.1321 11.0113 34.8333 10.9999ZM31.5149 35.0166C31.4693 35.4704 31.2562 35.8909 30.9172 36.196C30.5782 36.5011 30.1377 36.6689 29.6816 36.6666H14.3183C13.8622 36.6689 13.4217 36.5011 13.0827 36.196C12.7437 35.8909 12.5305 35.4704 12.4849 35.0166L11.1833 21.9999H32.8166L31.5149 35.0166ZM34.8333 18.3333H9.16661C8.68038 18.3333 8.21407 18.1401 7.87025 17.7963C7.52643 17.4525 7.33328 16.9862 7.33328 16.4999C7.33328 16.0137 7.52643 15.5474 7.87025 15.2036C8.21407 14.8598 8.68038 14.6666 9.16661 14.6666H34.8333C35.3195 14.6666 35.7858 14.8598 36.1296 15.2036C36.4735 15.5474 36.6666 16.0137 36.6666 16.4999C36.6666 16.9862 36.4735 17.4525 36.1296 17.7963C35.7858 18.1401 35.3195 18.3333 34.8333 18.3333Z" fill="white"/>
</svg>
