<svg width="69" height="69" viewBox="0 0 69 69" fill="none" xmlns="http://www.w3.org/2000/svg">
<path d="M63.25 48.875H5.75C4.9875 48.875 4.25623 49.1779 3.71707 49.7171C3.1779 50.2562 2.875 50.9875 2.875 51.75C2.875 52.5125 3.1779 53.2438 3.71707 53.7829C4.25623 54.3221 4.9875 54.625 5.75 54.625H63.25C64.0125 54.625 64.7438 54.3221 65.2829 53.7829C65.8221 53.2438 66.125 52.5125 66.125 51.75C66.125 50.9875 65.8221 50.2562 65.2829 49.7171C64.7438 49.1779 64.0125 48.875 63.25 48.875ZM63.25 60.375H5.75C4.9875 60.375 4.25623 60.6779 3.71707 61.2171C3.1779 61.7562 2.875 62.4875 2.875 63.25C2.875 64.0125 3.1779 64.7438 3.71707 65.2829C4.25623 65.8221 4.9875 66.125 5.75 66.125H63.25C64.0125 66.125 64.7438 65.8221 65.2829 65.2829C65.8221 64.7438 66.125 64.0125 66.125 63.25C66.125 62.4875 65.8221 61.7562 65.2829 61.2171C64.7438 60.6779 64.0125 60.375 63.25 60.375ZM17.25 20.125C16.6814 20.125 16.1255 20.2936 15.6527 20.6095C15.1799 20.9254 14.8114 21.3744 14.5938 21.8998C14.3762 22.4251 14.3193 23.0032 14.4302 23.5609C14.5412 24.1186 14.815 24.6309 15.2171 25.0329C15.6191 25.435 16.1314 25.7088 16.6891 25.8198C17.2468 25.9307 17.8249 25.8738 18.3502 25.6562C18.8756 25.4386 19.3246 25.0701 19.6405 24.5973C19.9564 24.1245 20.125 23.5686 20.125 23C20.125 22.2375 19.8221 21.5062 19.2829 20.9671C18.7438 20.4279 18.0125 20.125 17.25 20.125ZM57.5 2.875H11.5C9.21251 2.875 7.01871 3.7837 5.4012 5.4012C3.7837 7.01871 2.875 9.21251 2.875 11.5V34.5C2.875 36.7875 3.7837 38.9813 5.4012 40.5988C7.01871 42.2163 9.21251 43.125 11.5 43.125H57.5C59.7875 43.125 61.9813 42.2163 63.5988 40.5988C65.2163 38.9813 66.125 36.7875 66.125 34.5V11.5C66.125 9.21251 65.2163 7.01871 63.5988 5.4012C61.9813 3.7837 59.7875 2.875 57.5 2.875V2.875ZM60.375 34.5C60.375 35.2625 60.0721 35.9938 59.5329 36.5329C58.9938 37.0721 58.2625 37.375 57.5 37.375H11.5C10.7375 37.375 10.0062 37.0721 9.46707 36.5329C8.9279 35.9938 8.625 35.2625 8.625 34.5V11.5C8.625 10.7375 8.9279 10.0062 9.46707 9.46707C10.0062 8.9279 10.7375 8.625 11.5 8.625H57.5C58.2625 8.625 58.9938 8.9279 59.5329 9.46707C60.0721 10.0062 60.375 10.7375 60.375 11.5V34.5ZM34.5 14.375C32.7941 14.375 31.1266 14.8808 29.7082 15.8286C28.2898 16.7763 27.1843 18.1233 26.5315 19.6994C25.8787 21.2754 25.7079 23.0096 26.0407 24.6827C26.3735 26.3557 27.195 27.8926 28.4012 29.0988C29.6074 30.305 31.1443 31.1265 32.8173 31.4593C34.4904 31.7921 36.2246 31.6213 37.8006 30.9685C39.3767 30.3157 40.7237 29.2102 41.6714 27.7918C42.6192 26.3734 43.125 24.7059 43.125 23C43.125 20.7125 42.2163 18.5187 40.5988 16.9012C38.9813 15.2837 36.7875 14.375 34.5 14.375ZM34.5 25.875C33.9314 25.875 33.3755 25.7064 32.9027 25.3905C32.4299 25.0746 32.0614 24.6256 31.8438 24.1002C31.6262 23.5749 31.5693 22.9968 31.6802 22.4391C31.7912 21.8814 32.065 21.3691 32.4671 20.9671C32.8691 20.565 33.3814 20.2912 33.9391 20.1802C34.4968 20.0693 35.0749 20.1262 35.6002 20.3438C36.1256 20.5614 36.5746 20.9299 36.8905 21.4027C37.2064 21.8755 37.375 22.4314 37.375 23C37.375 23.7625 37.0721 24.4938 36.5329 25.0329C35.9938 25.5721 35.2625 25.875 34.5 25.875ZM51.75 20.125C51.1814 20.125 50.6255 20.2936 50.1527 20.6095C49.6799 20.9254 49.3114 21.3744 49.0938 21.8998C48.8762 22.4251 48.8193 23.0032 48.9302 23.5609C49.0412 24.1186 49.315 24.6309 49.7171 25.0329C50.1191 25.435 50.6314 25.7088 51.1891 25.8198C51.7468 25.9307 52.3249 25.8738 52.8502 25.6562C53.3756 25.4386 53.8246 25.0701 54.1405 24.5973C54.4564 24.1245 54.625 23.5686 54.625 23C54.625 22.2375 54.3221 21.5062 53.7829 20.9671C53.2438 20.4279 52.5125 20.125 51.75 20.125Z" fill="black"/>
</svg>
