<svg width="69" height="69" viewBox="0 0 69 69" fill="none" xmlns="http://www.w3.org/2000/svg">
<path d="M52.6125 24.6963L55.2287 22.1088C55.7701 21.5674 56.0742 20.8331 56.0742 20.0675C56.0742 19.3019 55.7701 18.5676 55.2287 18.0262C54.6873 17.4849 53.9531 17.1807 53.1875 17.1807C52.4218 17.1807 51.6876 17.4849 51.1462 18.0262L48.5587 20.6425C44.5295 17.5256 39.5796 15.8345 34.4856 15.8345C29.3915 15.8345 24.4416 17.5256 20.4125 20.6425L17.7962 17.9975C17.251 17.4561 16.5131 17.1535 15.7448 17.1562C14.9765 17.1589 14.2407 17.4667 13.6993 18.0119C13.158 18.5571 12.8553 19.295 12.858 20.0633C12.8607 20.8316 13.1685 21.5674 13.7137 22.1088L16.3587 24.725C13.2049 28.7429 11.4936 33.7046 11.5 38.8125C11.4906 42.4793 12.358 46.0953 14.03 49.3588C15.702 52.6222 18.13 55.4387 21.1116 57.5731C24.0932 59.7076 27.5419 61.0982 31.1702 61.6291C34.7984 62.1599 38.5009 61.8156 41.9691 60.6248C45.4372 59.434 48.5703 57.4313 51.1072 54.7836C53.644 52.1359 55.5111 48.9201 56.5526 45.4042C57.5941 41.8884 57.7799 38.1745 57.0945 34.5723C56.4091 30.9701 54.8724 27.5839 52.6125 24.6963ZM34.5 56.0625C31.0882 56.0625 27.7531 55.0508 24.9164 53.1553C22.0796 51.2599 19.8686 48.5658 18.563 45.4138C17.2574 42.2618 16.9158 38.7934 17.5814 35.4472C18.247 32.101 19.8899 29.0274 22.3024 26.6149C24.7148 24.2025 27.7885 22.5595 31.1346 21.894C34.4808 21.2284 37.9492 21.57 41.1012 22.8756C44.2533 24.1812 46.9473 26.3922 48.8428 29.2289C50.7383 32.0657 51.75 35.4008 51.75 38.8125C51.75 43.3875 49.9326 47.7751 46.6975 51.0101C43.4625 54.2451 39.0749 56.0625 34.5 56.0625ZM28.75 12.9375H40.25C41.0125 12.9375 41.7437 12.6346 42.2829 12.0954C42.8221 11.5563 43.125 10.825 43.125 10.0625C43.125 9.3 42.8221 8.56873 42.2829 8.02957C41.7437 7.4904 41.0125 7.1875 40.25 7.1875H28.75C27.9875 7.1875 27.2562 7.4904 26.717 8.02957C26.1779 8.56873 25.875 9.3 25.875 10.0625C25.875 10.825 26.1779 11.5563 26.717 12.0954C27.2562 12.6346 27.9875 12.9375 28.75 12.9375ZM37.375 30.1875C37.375 29.425 37.0721 28.6937 36.5329 28.1546C35.9937 27.6154 35.2625 27.3125 34.5 27.3125C33.7375 27.3125 33.0062 27.6154 32.467 28.1546C31.9279 28.6937 31.625 29.425 31.625 30.1875V35.6213C30.974 36.2035 30.5151 36.9697 30.3091 37.8185C30.1031 38.6672 30.1597 39.5585 30.4713 40.3744C30.783 41.1903 31.335 41.8923 32.0544 42.3876C32.7738 42.8829 33.6266 43.1481 34.5 43.1481C35.3733 43.1481 36.2262 42.8829 36.9455 42.3876C37.6649 41.8923 38.2169 41.1903 38.5286 40.3744C38.8402 39.5585 38.8968 38.6672 38.6908 37.8185C38.4848 36.9697 38.0259 36.2035 37.375 35.6213V30.1875Z" fill="black"/>
</svg>
