<svg width="69" height="69" viewBox="0 0 69 69" fill="none" xmlns="http://www.w3.org/2000/svg">
<path d="M63.25 46H56.9825C57.3172 45.0781 57.4922 44.1058 57.5 43.125V28.75C57.5 26.4625 56.5913 24.2687 54.9738 22.6512C53.3563 21.0337 51.1625 20.125 48.875 20.125H31.625C29.3375 20.125 27.1437 21.0337 25.5262 22.6512C23.9087 24.2687 23 26.4625 23 28.75V43.125C23.0078 44.1058 23.1828 45.0781 23.5175 46H20.125C19.3625 46 18.6312 45.6971 18.0921 45.1579C17.5529 44.6188 17.25 43.8875 17.25 43.125V14.375C17.25 12.0875 16.3413 9.89371 14.7238 8.2762C13.1063 6.6587 10.9125 5.75 8.625 5.75H5.75C4.9875 5.75 4.25623 6.0529 3.71707 6.59207C3.1779 7.13123 2.875 7.8625 2.875 8.625C2.875 9.3875 3.1779 10.1188 3.71707 10.6579C4.25623 11.1971 4.9875 11.5 5.75 11.5H8.625C9.3875 11.5 10.1188 11.8029 10.6579 12.3421C11.1971 12.8812 11.5 13.6125 11.5 14.375V43.125C11.5106 45.0136 12.1408 46.8464 13.2938 48.3422C14.4468 49.838 16.0589 50.914 17.8825 51.405C17.353 52.7003 17.1467 54.105 17.2812 55.4979C17.4158 56.8908 17.8873 58.23 18.6549 59.4C19.4226 60.57 20.4634 61.5356 21.6876 62.2136C22.9117 62.8916 24.2824 63.2615 25.6815 63.2915C27.0805 63.3215 28.4658 63.0106 29.7179 62.3857C30.97 61.7608 32.0512 60.8406 32.8683 59.7045C33.6854 58.5685 34.2138 57.2507 34.4079 55.8649C34.602 54.4791 34.456 53.0668 33.9825 51.75H43.6425C43.1697 53.0528 43.0177 54.4503 43.1995 55.8242C43.3814 57.1981 43.8916 58.508 44.687 59.6429C45.4825 60.7778 46.5397 61.7043 47.7691 62.344C48.9986 62.9837 50.3641 63.3176 51.75 63.3176C53.1359 63.3176 54.5014 62.9837 55.7309 62.344C56.9603 61.7043 58.0175 60.7778 58.813 59.6429C59.6084 58.508 60.1186 57.1981 60.3005 55.8242C60.4823 54.4503 60.3303 53.0528 59.8575 51.75H63.25C64.0125 51.75 64.7438 51.4471 65.2829 50.9079C65.8221 50.3688 66.125 49.6375 66.125 48.875C66.125 48.1125 65.8221 47.3812 65.2829 46.8421C64.7438 46.3029 64.0125 46 63.25 46ZM25.875 57.5C25.3064 57.5 24.7505 57.3314 24.2777 57.0155C23.8049 56.6996 23.4364 56.2506 23.2188 55.7252C23.0012 55.1999 22.9443 54.6218 23.0552 54.0641C23.1662 53.5064 23.44 52.9941 23.8421 52.5921C24.2441 52.19 24.7564 51.9162 25.3141 51.8052C25.8718 51.6943 26.4499 51.7512 26.9752 51.9688C27.5006 52.1864 27.9496 52.5549 28.2655 53.0277C28.5814 53.5005 28.75 54.0564 28.75 54.625C28.75 55.3875 28.4471 56.1188 27.9079 56.6579C27.3688 57.1971 26.6375 57.5 25.875 57.5ZM31.625 46C30.8625 46 30.1312 45.6971 29.5921 45.1579C29.0529 44.6188 28.75 43.8875 28.75 43.125V28.75C28.75 27.9875 29.0529 27.2562 29.5921 26.7171C30.1312 26.1779 30.8625 25.875 31.625 25.875H48.875C49.6375 25.875 50.3688 26.1779 50.9079 26.7171C51.4471 27.2562 51.75 27.9875 51.75 28.75V43.125C51.75 43.8875 51.4471 44.6188 50.9079 45.1579C50.3688 45.6971 49.6375 46 48.875 46H31.625ZM51.75 57.5C51.1814 57.5 50.6255 57.3314 50.1527 57.0155C49.6799 56.6996 49.3114 56.2506 49.0938 55.7252C48.8762 55.1999 48.8193 54.6218 48.9302 54.0641C49.0412 53.5064 49.315 52.9941 49.7171 52.5921C50.1191 52.19 50.6314 51.9162 51.1891 51.8052C51.7468 51.6943 52.3249 51.7512 52.8502 51.9688C53.3756 52.1864 53.8246 52.5549 54.1405 53.0277C54.4564 53.5005 54.625 54.0564 54.625 54.625C54.625 55.3875 54.3221 56.1188 53.7829 56.6579C53.2438 57.1971 52.5125 57.5 51.75 57.5Z" fill="black"/>
</svg>
