<svg width="74" height="74" viewBox="0 0 74 74" fill="none" xmlns="http://www.w3.org/2000/svg">
<path d="M23.6105 67.3453H13.713C13.3205 67.3453 12.944 67.5012 12.6665 67.7788C12.3889 68.0563 12.233 68.4328 12.233 68.8253C12.233 69.2178 12.3889 69.5942 12.6665 69.8718C12.944 70.1493 13.3205 70.3053 13.713 70.3053H58.6029C58.9954 70.3053 59.3718 70.1493 59.6494 69.8718C59.9269 69.5942 60.0829 69.2178 60.0829 68.8253C60.0829 68.4328 59.9269 68.0563 59.6494 67.7788C59.3718 67.5012 58.9954 67.3453 58.6029 67.3453H48.7054C57.9539 62.7225 64.3223 53.1639 64.3223 42.1401V41.1382C64.3223 40.7457 64.1664 40.3692 63.8888 40.0917C63.6113 39.8141 63.2349 39.6582 62.8423 39.6582H9.4728C9.08028 39.6582 8.70383 39.8141 8.42628 40.0917C8.14873 40.3692 7.9928 40.7457 7.9928 41.1382V42.1401C7.9928 53.1639 14.362 62.7225 23.6105 67.3453ZM61.3586 42.6182C61.1026 56.2963 49.8968 67.3453 36.1579 67.3453C22.4191 67.3453 11.2133 56.2963 10.9572 42.6182H61.3586ZM12.9552 37.2872C13.3478 37.2872 13.7242 37.1313 14.0018 36.8537C14.2793 36.5762 14.4352 36.1997 14.4352 35.8072C14.4366 34.4597 14.9725 33.1677 15.9253 32.2147C16.8781 31.2618 18.17 30.7257 19.5176 30.7242C19.5361 30.7242 19.5531 30.7197 19.5708 30.719C19.5094 31.1193 19.4672 31.5263 19.4672 31.9444C19.4672 32.3369 19.6232 32.7134 19.9007 32.9909C20.1783 33.2685 20.5547 33.4244 20.9472 33.4244C21.3398 33.4244 21.7162 33.2685 21.9938 32.9909C22.2713 32.7134 22.4272 32.3369 22.4272 31.9444C22.4288 30.597 22.9648 29.3052 23.9175 28.3524C24.8703 27.3996 26.1621 26.8637 27.5096 26.8621C28.5278 26.8621 29.5105 27.1618 30.3497 27.7294C30.675 27.9492 31.0743 28.0308 31.4597 27.9562C31.8452 27.8816 32.1852 27.6569 32.405 27.3316C32.6248 27.0063 32.7064 26.607 32.6318 26.2216C32.5572 25.8361 32.3326 25.4961 32.0073 25.2763C31.3099 24.8059 30.5427 24.4485 29.734 24.2173C29.7969 24.0523 29.8354 23.8755 29.8354 23.6882C29.8369 22.3408 30.3729 21.049 31.3257 20.0962C32.2785 19.1434 33.5703 18.6075 34.9177 18.6059C37.4041 18.6059 39.4746 20.4004 39.912 22.7618C39.6969 23.0227 39.5787 23.3501 39.5775 23.6882C39.5775 24.0808 39.7334 24.4572 40.011 24.7348C40.2885 25.0123 40.665 25.1682 41.0575 25.1682C43.8391 25.1682 46.1531 27.1884 46.6223 29.8376C46.4647 30.0678 46.3781 30.326 46.3648 30.5895C46.1583 30.8451 46.0432 31.1624 46.0378 31.4909C46.0323 31.8195 46.1367 32.1404 46.3345 32.4028C46.5322 32.6652 46.812 32.854 47.1293 32.9392C47.4467 33.0244 47.7834 33.0011 48.086 32.8731C49.0002 32.4895 49.9814 32.2911 50.9728 32.2894C51.9642 32.2876 52.9461 32.4825 53.8617 32.8628C54.7792 33.2379 55.6132 33.7913 56.3153 34.491C57.0175 35.1906 57.5739 36.0226 57.9524 36.9387C58.0271 37.1182 58.1364 37.2812 58.2741 37.4184C58.4118 37.5557 58.5751 37.6645 58.7549 37.7386C58.9346 37.8127 59.1271 37.8507 59.3215 37.8504C59.516 37.85 59.7084 37.8115 59.8879 37.7368C60.0674 37.6621 60.2304 37.5528 60.3676 37.4151C60.5049 37.2774 60.6137 37.114 60.6878 36.9343C60.7619 36.7546 60.7999 36.562 60.7996 36.3676C60.7993 36.1732 60.7607 35.9808 60.686 35.8013C60.159 34.5257 59.3843 33.3673 58.4066 32.3932C57.4289 31.4191 56.2677 30.6485 54.9902 30.1262C53.6763 29.5834 52.2655 29.314 50.844 29.3344L67.1995 9.35222C67.4399 9.04768 67.5512 8.66087 67.5093 8.2751C67.4673 7.88934 67.2756 7.53547 66.9753 7.2897C66.675 7.04394 66.2902 6.92594 65.9037 6.96112C65.5173 6.9963 65.1601 7.18185 64.9091 7.4778L48.8282 27.1248C48.6055 26.6583 48.3412 26.2127 48.0386 25.7935L59.5101 4.40458C59.6818 4.05999 59.7126 3.66207 59.5958 3.29519C59.4791 2.92832 59.2241 2.62133 58.8848 2.43933C58.5455 2.25733 58.1487 2.21462 57.7785 2.32027C57.4083 2.42591 57.0937 2.6716 56.9016 3.00524L45.8275 23.6535C44.9234 23.0496 43.9126 22.6234 42.849 22.3977C42.2282 18.5756 38.9137 15.6452 34.9192 15.6452C30.4844 15.6452 26.8769 19.2527 26.8769 23.6875C26.8769 23.7711 26.888 23.8518 26.9013 23.9317C25.5633 24.0336 24.272 24.4683 23.1449 25.1965C22.0178 25.9246 21.0906 26.923 20.4477 28.1009C20.1863 27.8843 19.8578 27.7651 19.5183 27.7634C15.0835 27.7634 11.476 31.3709 11.476 35.8065C11.4759 36.0008 11.5141 36.1933 11.5884 36.3729C11.6626 36.5525 11.7716 36.7157 11.9089 36.8532C12.0463 36.9907 12.2094 37.0998 12.3889 37.1743C12.5684 37.2487 12.7609 37.2871 12.9552 37.2872Z" fill="black" stroke="black" stroke-width="3"/>
<path d="M32.0791 30.6641C31.16 30.7391 30.2649 30.9957 29.4457 31.4189C28.6264 31.8421 27.8992 32.4236 27.3061 33.1297C27.1807 33.2782 27.0858 33.45 27.0267 33.6351C26.9677 33.8203 26.9457 34.0153 26.962 34.209C26.995 34.6001 27.182 34.9622 27.4818 35.2154C27.7817 35.4687 28.17 35.5925 28.5611 35.5595C28.9522 35.5266 29.3143 35.3396 29.5675 35.0397C29.9103 34.6313 30.3307 34.2949 30.8044 34.0502C31.278 33.8054 31.7956 33.657 32.327 33.6137C32.8584 33.5674 33.3937 33.6269 33.9019 33.7889C34.4101 33.9508 34.8811 34.212 35.2877 34.5572C35.5889 34.7986 35.9724 34.9127 36.3565 34.8754C36.7407 34.838 37.095 34.6521 37.344 34.3572C37.593 34.0624 37.717 33.6819 37.6895 33.297C37.662 32.912 37.4853 32.553 37.1969 32.2965C36.4946 31.6989 35.6805 31.2468 34.8019 30.9666C33.9233 30.6863 32.9978 30.5835 32.0791 30.6641Z" fill="black" stroke="black" stroke-width="3"/>
</svg>
