<svg width="38" height="38" viewBox="0 0 24 24" fill="none" xmlns="http://www.w3.org/2000/svg">
<path d="M14 11.5097H16.42C16.5516 11.5105 16.6821 11.4852 16.8039 11.4355C16.9257 11.3857 17.0366 11.3124 17.13 11.2197L21.71 6.6397C21.8037 6.54674 21.8781 6.43614 21.9289 6.31428C21.9797 6.19242 22.0058 6.06172 22.0058 5.9297C22.0058 5.79769 21.9797 5.66699 21.9289 5.54513C21.8781 5.42327 21.8037 5.31267 21.71 5.2197L19.29 2.7997C19.197 2.70598 19.0864 2.63158 18.9646 2.58081C18.8427 2.53004 18.712 2.50391 18.58 2.50391C18.448 2.50391 18.3173 2.53004 18.1954 2.58081C18.0736 2.63158 17.963 2.70598 17.87 2.7997L13.29 7.3797C13.1073 7.57134 13.0037 7.82494 13 8.0897V10.5097C13 10.7749 13.1054 11.0293 13.2929 11.2168C13.4804 11.4043 13.7348 11.5097 14 11.5097ZM15 8.5097L18.58 4.9297L19.58 5.9297L16 9.5097H15V8.5097ZM21 10.5097C20.7348 10.5097 20.4804 10.6151 20.2929 10.8026C20.1054 10.9901 20 11.2445 20 11.5097V18.5097C20 18.7749 19.8946 19.0293 19.7071 19.2168C19.5196 19.4043 19.2652 19.5097 19 19.5097H5C4.73478 19.5097 4.48043 19.4043 4.29289 19.2168C4.10536 19.0293 4 18.7749 4 18.5097V8.8997L9.88 14.7897C10.1591 15.0724 10.4915 15.2969 10.858 15.4501C11.2245 15.6033 11.6178 15.6822 12.015 15.6822C12.4122 15.6822 12.8055 15.6033 13.172 15.4501C13.5385 15.2969 13.8709 15.0724 14.15 14.7897C14.3332 14.6028 14.4359 14.3515 14.4359 14.0897C14.4359 13.828 14.3332 13.5766 14.15 13.3897C14.0569 13.2945 13.9456 13.2188 13.8229 13.1671C13.7001 13.1154 13.5682 13.0888 13.435 13.0888C13.3018 13.0888 13.1699 13.1154 13.0471 13.1671C12.9244 13.2188 12.8131 13.2945 12.72 13.3897C12.5331 13.5729 12.2818 13.6756 12.02 13.6756C11.7582 13.6756 11.5069 13.5729 11.32 13.3897L5.41 7.4897H10C10.2652 7.4897 10.5196 7.38435 10.7071 7.19681C10.8946 7.00928 11 6.75492 11 6.4897C11 6.22449 10.8946 5.97013 10.7071 5.7826C10.5196 5.59506 10.2652 5.4897 10 5.4897H5C4.20435 5.4897 3.44129 5.80577 2.87868 6.36838C2.31607 6.93099 2 7.69405 2 8.4897V18.4897C2 19.2854 2.31607 20.0484 2.87868 20.611C3.44129 21.1736 4.20435 21.4897 5 21.4897H19C19.7956 21.4897 20.5587 21.1736 21.1213 20.611C21.6839 20.0484 22 19.2854 22 18.4897V11.4897C22 11.2245 21.8946 10.9701 21.7071 10.7826C21.5196 10.5951 21.2652 10.4897 21 10.4897V10.5097Z" fill="white"/>
</svg>
