<svg width="58" height="58" viewBox="0 0 58 58" fill="none" xmlns="http://www.w3.org/2000/svg">
<path d="M28.9863 4.83337C24.2065 4.83337 19.5342 6.25072 15.56 8.90619C11.5858 11.5617 8.48829 15.336 6.65917 19.7519C4.83005 24.1677 4.35147 29.0268 5.28395 33.7147C6.21642 38.4026 8.51807 42.7087 11.8978 46.0885C15.2776 49.4682 19.5837 51.7699 24.2716 52.7024C28.9595 53.6348 33.8186 53.1563 38.2344 51.3271C42.6503 49.498 46.4246 46.4005 49.0801 42.4263C51.7356 38.4521 53.1529 33.7798 53.1529 29C53.1532 25.8264 52.5283 22.6837 51.3139 19.7515C50.0995 16.8194 48.3194 14.1552 46.0753 11.911C43.8311 9.6669 41.1669 7.88681 38.2348 6.67242C35.3026 5.45802 32.1599 4.83311 28.9863 4.83337V4.83337ZM36.6701 41.4518C36.5796 41.6774 36.442 41.881 36.2664 42.049C36.0908 42.217 35.8814 42.3455 35.6521 42.426C35.4227 42.5064 35.1789 42.5369 34.9368 42.5154C34.6948 42.4939 34.4601 42.4209 34.2486 42.3013L27.6881 37.2036L23.4775 41.0882C23.3798 41.1604 23.2655 41.2068 23.1452 41.2233C23.0248 41.2397 22.9022 41.2256 22.7888 41.1823L23.5959 33.9602L23.6218 33.9807L23.6383 33.8381C23.6383 33.8381 35.4437 23.09 35.9246 22.632C36.4115 22.1753 36.2509 22.0762 36.2509 22.0762C36.2786 21.5191 35.3772 22.0762 35.3772 22.0762L19.7353 32.1393L13.2212 29.9208C13.2212 29.9208 12.2207 29.5619 12.1264 28.7729C12.0273 27.9899 13.2538 27.5645 13.2538 27.5645L39.1532 17.2756C39.1532 17.2756 41.2823 16.327 41.2823 17.8979L36.6701 41.4518Z" fill="white"/>
</svg>
