<svg width="58" height="58" viewBox="0 0 58 58" fill="none" xmlns="http://www.w3.org/2000/svg">
<path d="M36.4263 4.83337H21.599C8.05551 4.83337 4.83334 8.05554 4.83334 21.5738V36.4011C4.83334 49.9444 8.03045 53.1667 21.5737 53.1667H36.4011C49.9445 53.1667 53.1667 49.9696 53.1667 36.4262V21.599C53.1667 8.05554 49.9696 4.83337 36.4263 4.83337ZM43.8524 39.3212H40.3281C38.994 39.3212 38.5912 38.2387 36.1997 35.8472C34.1102 33.8334 33.2292 33.5816 32.7005 33.5816C31.9706 33.5816 31.7691 33.7829 31.7691 34.7899V37.9618C31.7691 38.8178 31.4922 39.3212 29.2518 39.3212C27.0777 39.1751 24.9695 38.5146 23.1006 37.3942C21.2318 36.2738 19.6559 34.7254 18.5026 32.8767C15.7648 29.469 13.8599 25.4694 12.9393 21.1962C12.9393 20.6675 13.1406 20.1892 14.1476 20.1892H17.6719C18.5781 20.1892 18.9054 20.592 19.2578 21.5235C20.9696 26.5581 23.8898 30.9384 25.0729 30.9384C25.5261 30.9384 25.7274 30.737 25.7274 29.6042V24.4184C25.5763 22.0521 24.3177 21.8506 24.3177 20.9948C24.3343 20.769 24.4382 20.5586 24.6074 20.4082C24.7766 20.2578 24.9978 20.1792 25.224 20.1892H30.7622C31.5174 20.1892 31.7691 20.5668 31.7691 21.473V28.4714C31.7691 29.2266 32.0964 29.4783 32.3229 29.4783C32.7761 29.4783 33.1284 29.2266 33.9592 28.3959C35.7443 26.2189 37.2029 23.7935 38.2891 21.1962C38.3999 20.8836 38.6101 20.616 38.8874 20.4342C39.1647 20.2523 39.4939 20.1663 39.8247 20.1892H43.349C44.4063 20.1892 44.6328 20.7178 44.4063 21.473C43.1239 24.3448 41.5373 27.0708 39.6737 29.6042C39.2961 30.1831 39.145 30.4852 39.6737 31.1649C40.0261 31.6936 41.2596 32.7256 42.0903 33.7074C43.2986 34.9127 44.302 36.3072 45.0607 37.836C45.3628 38.8178 44.8594 39.3212 43.8524 39.3212V39.3212Z" fill="white"/>
</svg>
